<svg xmlns="http://www.w3.org/2000/svg" xmlns:xlink="http://www.w3.org/1999/xlink" width="500" zoomAndPan="magnify" viewBox="0 0 375 374.999991" height="500" preserveAspectRatio="xMidYMid meet" version="1.0"><defs><clipPath id="18060c1e0e"><path d="M 166 112.5 L 262 112.5 L 262 216 L 166 216 Z M 166 112.5 " clip-rule="nonzero"/></clipPath><clipPath id="98461253d9"><path d="M 112.5 159 L 208 159 L 208 262.5 L 112.5 262.5 Z M 112.5 159 " clip-rule="nonzero"/></clipPath></defs><g clip-path="url(#18060c1e0e)"><path fill="#827b7b" d="M 193.820312 215.210938 C 184.835938 215.210938 176.050781 211.929688 169.429688 205.296875 C 165.726562 201.605469 165.726562 195.628906 169.417969 191.9375 C 173.109375 188.246094 179.09375 188.246094 182.777344 191.929688 C 189.234375 198.371094 200.429688 197.675781 207.738281 190.355469 L 236.882812 161.210938 C 240.785156 157.324219 243.011719 152.25 243.011719 147.285156 C 243.011719 144.320312 242.222656 140.015625 238.476562 136.261719 C 234.460938 132.238281 229.847656 131.574219 226.628906 131.738281 C 221.878906 131.953125 217.222656 134.121094 213.515625 137.824219 L 196.796875 154.535156 C 192.890625 150.628906 176.835938 147.761719 172.488281 152.117188 L 200.140625 124.472656 C 207.175781 117.4375 216.25 113.3125 225.722656 112.859375 C 235.597656 112.40625 244.867188 115.960938 251.808594 122.902344 C 258.3125 129.394531 261.894531 138.058594 261.894531 147.289062 C 261.890625 157.234375 257.640625 167.179688 250.222656 174.574219 L 221.082031 203.714844 C 213.464844 211.359375 203.535156 215.210938 193.820312 215.210938 Z M 193.820312 215.210938 " fill-opacity="1" fill-rule="nonzero"/></g><g clip-path="url(#98461253d9)"><path fill="#827b7b" d="M 180.597656 159.789062 C 189.570312 159.789062 198.359375 163.070312 204.996094 169.703125 C 208.691406 173.394531 208.6875 179.371094 204.996094 183.0625 C 201.308594 186.753906 195.324219 186.753906 191.632812 183.0625 C 185.1875 176.628906 173.988281 177.332031 166.675781 184.640625 L 137.527344 213.785156 C 133.632812 217.667969 131.402344 222.746094 131.402344 227.710938 C 131.402344 230.664062 132.191406 234.976562 135.941406 238.734375 C 139.960938 242.746094 144.570312 243.417969 147.789062 243.265625 C 152.539062 243.039062 157.199219 240.871094 160.902344 237.167969 L 177.605469 220.472656 C 181.511719 224.371094 197.5625 227.238281 201.917969 222.882812 L 174.265625 250.527344 C 167.238281 257.5625 158.15625 261.6875 148.691406 262.140625 C 138.808594 262.605469 129.539062 259.046875 122.59375 252.097656 C 116.085938 245.605469 112.511719 236.941406 112.511719 227.710938 C 112.515625 217.765625 116.761719 207.820312 124.179688 200.425781 L 153.320312 171.285156 C 160.949219 163.652344 170.890625 159.789062 180.597656 159.789062 Z M 180.597656 159.789062 " fill-opacity="1" fill-rule="nonzero"/></g></svg>