<svg xmlns="http://www.w3.org/2000/svg" xmlns:xlink="http://www.w3.org/1999/xlink" width="200" zoomAndPan="magnify" viewBox="0 0 150 74.999997" height="100" preserveAspectRatio="xMidYMid meet" version="1.0"><defs><g/></defs><path fill="#039be5" d="M 34.585938 26.171875 C 35.027344 26.613281 35.425781 27.097656 35.773438 27.617188 C 36.121094 28.140625 36.414062 28.6875 36.65625 29.269531 C 36.894531 29.847656 37.074219 30.445312 37.199219 31.058594 C 37.320312 31.671875 37.382812 32.292969 37.382812 32.921875 C 37.382812 33.546875 37.320312 34.167969 37.199219 34.785156 C 37.078125 35.398438 36.894531 35.996094 36.65625 36.574219 C 36.414062 37.152344 36.121094 37.703125 35.773438 38.226562 C 35.425781 38.746094 35.027344 39.226562 34.585938 39.671875 C 34.144531 40.113281 33.660156 40.511719 33.140625 40.859375 C 32.617188 41.207031 32.066406 41.5 31.488281 41.742188 C 30.910156 41.980469 30.3125 42.160156 29.699219 42.285156 C 29.082031 42.40625 28.460938 42.46875 27.835938 42.46875 C 27.210938 42.46875 26.589844 42.40625 25.972656 42.285156 C 25.359375 42.164062 24.761719 41.980469 24.183594 41.742188 C 23.601562 41.5 23.054688 41.207031 22.53125 40.859375 C 22.011719 40.511719 21.527344 40.113281 21.085938 39.671875 C 20.640625 39.230469 20.246094 38.746094 19.898438 38.226562 C 19.550781 37.703125 19.257812 37.152344 19.015625 36.574219 C 18.777344 35.996094 18.59375 35.398438 18.472656 34.785156 C 18.351562 34.167969 18.289062 33.546875 18.289062 32.921875 C 18.289062 32.292969 18.351562 31.675781 18.472656 31.058594 C 18.59375 30.445312 18.777344 29.847656 19.015625 29.269531 C 19.253906 28.6875 19.550781 28.140625 19.898438 27.617188 C 20.246094 27.097656 20.640625 26.613281 21.085938 26.171875 C 21.527344 25.726562 22.011719 25.332031 22.53125 24.984375 C 23.054688 24.636719 23.601562 24.34375 24.183594 24.101562 C 24.761719 23.863281 25.359375 23.679688 25.972656 23.558594 C 26.585938 23.4375 27.207031 23.375 27.835938 23.375 C 28.460938 23.375 29.082031 23.4375 29.699219 23.558594 C 30.3125 23.679688 30.910156 23.863281 31.488281 24.101562 C 32.066406 24.339844 32.617188 24.636719 33.140625 24.984375 C 33.660156 25.332031 34.140625 25.726562 34.585938 26.171875 Z M 34.585938 26.171875 " fill-opacity="1" fill-rule="nonzero"/><path fill="#fffffe" d="M 26.5625 33.875 C 26.082031 33.394531 25.816406 32.746094 25.816406 32.066406 C 25.816406 31.382812 26.082031 30.734375 26.5625 30.253906 L 29.351562 27.464844 C 29.835938 26.984375 30.484375 26.714844 31.164062 26.714844 C 31.84375 26.714844 32.492188 26.984375 32.972656 27.464844 C 33.453125 27.945312 33.722656 28.59375 33.722656 29.273438 C 33.722656 29.953125 33.453125 30.601562 32.972656 31.085938 L 30.8125 33.246094 L 30.027344 32.460938 L 32.1875 30.296875 C 32.460938 30.027344 32.609375 29.660156 32.609375 29.273438 C 32.609375 28.890625 32.460938 28.523438 32.1875 28.25 C 31.914062 27.976562 31.546875 27.828125 31.164062 27.828125 C 30.777344 27.828125 30.410156 27.976562 30.140625 28.25 L 27.347656 31.039062 C 27.074219 31.3125 26.925781 31.679688 26.925781 32.0625 C 26.925781 32.449219 27.078125 32.816406 27.347656 33.089844 L 27.519531 33.257812 L 26.734375 34.046875 Z M 26.5625 33.875 " fill-opacity="1" fill-rule="evenodd"/><path fill="#fffffe" d="M 29.109375 31.96875 C 29.589844 32.449219 29.855469 33.097656 29.855469 33.777344 C 29.855469 34.457031 29.589844 35.105469 29.109375 35.589844 L 26.316406 38.378906 C 25.835938 38.859375 25.1875 39.125 24.507812 39.125 C 23.828125 39.125 23.179688 38.859375 22.699219 38.378906 C 22.214844 37.898438 21.949219 37.25 21.949219 36.570312 C 21.949219 35.890625 22.214844 35.238281 22.699219 34.757812 L 24.859375 32.597656 L 25.644531 33.382812 L 23.484375 35.542969 C 23.210938 35.816406 23.0625 36.183594 23.0625 36.570312 C 23.0625 36.953125 23.210938 37.320312 23.484375 37.59375 C 23.757812 37.867188 24.125 38.015625 24.507812 38.015625 C 24.894531 38.015625 25.261719 37.867188 25.53125 37.59375 L 28.324219 34.804688 C 28.59375 34.53125 28.746094 34.164062 28.746094 33.777344 C 28.746094 33.394531 28.59375 33.027344 28.324219 32.753906 L 28.152344 32.585938 L 28.9375 31.796875 Z M 29.109375 31.96875 " fill-opacity="1" fill-rule="evenodd"/><g fill="#827b7b" fill-opacity="1"><g transform="translate(42.102672, 39.341252)"><g><path d="M 10.90625 -12.96875 L 10.90625 -4.609375 C 10.90625 -3.015625 10.472656 -1.804688 9.609375 -0.984375 C 8.753906 -0.171875 7.5 0.234375 5.84375 0.234375 C 4.1875 0.234375 2.925781 -0.171875 2.0625 -0.984375 C 1.207031 -1.804688 0.78125 -3.015625 0.78125 -4.609375 L 0.78125 -12.96875 L 3.734375 -12.96875 L 3.734375 -5.46875 C 3.734375 -4.414062 3.898438 -3.6875 4.234375 -3.28125 C 4.566406 -2.875 5.101562 -2.671875 5.84375 -2.671875 C 6.59375 -2.671875 7.128906 -2.875 7.453125 -3.28125 C 7.785156 -3.6875 7.953125 -4.414062 7.953125 -5.46875 L 7.953125 -12.96875 Z M 10.90625 -12.96875 "/></g></g></g><g fill="#827b7b" fill-opacity="1"><g transform="translate(53.787363, 39.341252)"><g><path d="M 0.9375 -12.96875 L 5.578125 -12.96875 C 6.828125 -12.96875 7.84375 -12.632812 8.625 -11.96875 C 9.414062 -11.300781 9.8125 -10.347656 9.8125 -9.109375 C 9.8125 -8.160156 9.570312 -7.363281 9.09375 -6.71875 C 8.613281 -6.070312 7.96875 -5.617188 7.15625 -5.359375 L 11.609375 0 L 7.859375 0 L 3.890625 -5.125 L 3.890625 0 L 0.9375 0 Z M 3.890625 -7.21875 L 4.25 -7.21875 C 4.519531 -7.21875 4.75 -7.222656 4.9375 -7.234375 C 5.125 -7.242188 5.335938 -7.28125 5.578125 -7.34375 C 5.816406 -7.40625 6.007812 -7.492188 6.15625 -7.609375 C 6.300781 -7.722656 6.425781 -7.890625 6.53125 -8.109375 C 6.644531 -8.328125 6.703125 -8.59375 6.703125 -8.90625 C 6.703125 -9.226562 6.644531 -9.5 6.53125 -9.71875 C 6.425781 -9.9375 6.300781 -10.101562 6.15625 -10.21875 C 6.007812 -10.332031 5.816406 -10.421875 5.578125 -10.484375 C 5.335938 -10.546875 5.125 -10.582031 4.9375 -10.59375 C 4.75 -10.601562 4.519531 -10.609375 4.25 -10.609375 L 3.890625 -10.609375 Z M 3.890625 -7.21875 "/></g></g></g><g fill="#827b7b" fill-opacity="1"><g transform="translate(65.0323, 39.341252)"><g><path d="M 3.890625 -12.96875 L 3.890625 -2.59375 L 8.359375 -2.59375 L 8.359375 0 L 0.9375 0 L 0.9375 -12.96875 Z M 3.890625 -12.96875 "/></g></g></g><g fill="#827b7b" fill-opacity="1"><g transform="translate(73.905748, 39.341252)"><g/></g></g><g fill="#827b7b" fill-opacity="1"><g transform="translate(78.193277, 39.341252)"><g><path d="M 5.71875 -13.203125 C 6.425781 -13.203125 7.113281 -13.097656 7.78125 -12.890625 C 8.445312 -12.691406 8.945312 -12.492188 9.28125 -12.296875 L 9.75 -11.984375 L 8.546875 -9.625 C 8.453125 -9.6875 8.320312 -9.765625 8.15625 -9.859375 C 7.988281 -9.960938 7.671875 -10.097656 7.203125 -10.265625 C 6.742188 -10.429688 6.316406 -10.515625 5.921875 -10.515625 C 5.429688 -10.515625 5.050781 -10.410156 4.78125 -10.203125 C 4.519531 -9.992188 4.390625 -9.710938 4.390625 -9.359375 C 4.390625 -9.171875 4.453125 -9 4.578125 -8.84375 C 4.703125 -8.695312 4.914062 -8.535156 5.21875 -8.359375 C 5.519531 -8.191406 5.785156 -8.054688 6.015625 -7.953125 C 6.242188 -7.847656 6.601562 -7.691406 7.09375 -7.484375 C 7.925781 -7.128906 8.640625 -6.644531 9.234375 -6.03125 C 9.828125 -5.414062 10.125 -4.722656 10.125 -3.953125 C 10.125 -3.203125 9.988281 -2.546875 9.71875 -1.984375 C 9.457031 -1.429688 9.09375 -1 8.625 -0.6875 C 8.15625 -0.375 7.632812 -0.144531 7.0625 0 C 6.5 0.15625 5.890625 0.234375 5.234375 0.234375 C 4.671875 0.234375 4.113281 0.175781 3.5625 0.0625 C 3.019531 -0.0507812 2.566406 -0.191406 2.203125 -0.359375 C 1.835938 -0.535156 1.503906 -0.707031 1.203125 -0.875 C 0.910156 -1.039062 0.695312 -1.179688 0.5625 -1.296875 L 0.359375 -1.484375 L 1.84375 -3.96875 C 1.96875 -3.851562 2.140625 -3.710938 2.359375 -3.546875 C 2.578125 -3.390625 2.96875 -3.175781 3.53125 -2.90625 C 4.09375 -2.632812 4.585938 -2.5 5.015625 -2.5 C 6.265625 -2.5 6.890625 -2.921875 6.890625 -3.765625 C 6.890625 -3.953125 6.84375 -4.117188 6.75 -4.265625 C 6.664062 -4.421875 6.507812 -4.570312 6.28125 -4.71875 C 6.050781 -4.875 5.847656 -4.992188 5.671875 -5.078125 C 5.503906 -5.171875 5.222656 -5.304688 4.828125 -5.484375 C 4.441406 -5.671875 4.15625 -5.8125 3.96875 -5.90625 C 3.175781 -6.289062 2.566406 -6.773438 2.140625 -7.359375 C 1.710938 -7.941406 1.5 -8.570312 1.5 -9.25 C 1.5 -10.40625 1.925781 -11.351562 2.78125 -12.09375 C 3.644531 -12.832031 4.625 -13.203125 5.71875 -13.203125 Z M 5.71875 -13.203125 "/></g></g></g><g fill="#827b7b" fill-opacity="1"><g transform="translate(88.747193, 39.341252)"><g><path d="M 3.890625 -5.203125 L 3.890625 0 L 0.9375 0 L 0.9375 -12.96875 L 3.890625 -12.96875 L 3.890625 -7.796875 L 8.078125 -7.796875 L 8.078125 -12.96875 L 11.03125 -12.96875 L 11.03125 0 L 8.078125 0 L 8.078125 -5.203125 Z M 3.890625 -5.203125 "/></g></g></g><g fill="#827b7b" fill-opacity="1"><g transform="translate(100.714574, 39.341252)"><g><path d="M 0.359375 -6.484375 C 0.359375 -8.367188 1 -9.957031 2.28125 -11.25 C 3.5625 -12.550781 5.101562 -13.203125 6.90625 -13.203125 C 8.71875 -13.203125 10.253906 -12.554688 11.515625 -11.265625 C 12.785156 -9.972656 13.421875 -8.378906 13.421875 -6.484375 C 13.421875 -4.585938 12.796875 -2.992188 11.546875 -1.703125 C 10.304688 -0.410156 8.757812 0.234375 6.90625 0.234375 C 5.007812 0.234375 3.441406 -0.40625 2.203125 -1.6875 C 0.972656 -2.96875 0.359375 -4.566406 0.359375 -6.484375 Z M 3.546875 -6.484375 C 3.546875 -5.804688 3.648438 -5.1875 3.859375 -4.625 C 4.078125 -4.0625 4.445312 -3.585938 4.96875 -3.203125 C 5.488281 -2.816406 6.132812 -2.625 6.90625 -2.625 C 8 -2.625 8.828125 -3 9.390625 -3.75 C 9.953125 -4.507812 10.234375 -5.421875 10.234375 -6.484375 C 10.234375 -7.546875 9.945312 -8.457031 9.375 -9.21875 C 8.800781 -9.976562 7.976562 -10.359375 6.90625 -10.359375 C 5.832031 -10.359375 5.003906 -9.976562 4.421875 -9.21875 C 3.835938 -8.457031 3.546875 -7.546875 3.546875 -6.484375 Z M 3.546875 -6.484375 "/></g></g></g><g fill="#827b7b" fill-opacity="1"><g transform="translate(114.488053, 39.341252)"><g><path d="M 0.9375 -12.96875 L 5.578125 -12.96875 C 6.828125 -12.96875 7.84375 -12.632812 8.625 -11.96875 C 9.414062 -11.300781 9.8125 -10.347656 9.8125 -9.109375 C 9.8125 -8.160156 9.570312 -7.363281 9.09375 -6.71875 C 8.613281 -6.070312 7.96875 -5.617188 7.15625 -5.359375 L 11.609375 0 L 7.859375 0 L 3.890625 -5.125 L 3.890625 0 L 0.9375 0 Z M 3.890625 -7.21875 L 4.25 -7.21875 C 4.519531 -7.21875 4.75 -7.222656 4.9375 -7.234375 C 5.125 -7.242188 5.335938 -7.28125 5.578125 -7.34375 C 5.816406 -7.40625 6.007812 -7.492188 6.15625 -7.609375 C 6.300781 -7.722656 6.425781 -7.890625 6.53125 -8.109375 C 6.644531 -8.328125 6.703125 -8.59375 6.703125 -8.90625 C 6.703125 -9.226562 6.644531 -9.5 6.53125 -9.71875 C 6.425781 -9.9375 6.300781 -10.101562 6.15625 -10.21875 C 6.007812 -10.332031 5.816406 -10.421875 5.578125 -10.484375 C 5.335938 -10.546875 5.125 -10.582031 4.9375 -10.59375 C 4.75 -10.601562 4.519531 -10.609375 4.25 -10.609375 L 3.890625 -10.609375 Z M 3.890625 -7.21875 "/></g></g></g><g fill="#827b7b" fill-opacity="1"><g transform="translate(125.732991, 39.341252)"><g><path d="M 0.125 -10.375 L 0.125 -12.96875 L 9.25 -12.96875 L 9.25 -10.375 L 6.15625 -10.375 L 6.15625 0 L 3.203125 0 L 3.203125 -10.375 Z M 0.125 -10.375 "/></g></g></g></svg>